<svg xmlns="http://www.w3.org/2000/svg" width="58" height="20" fill="none" viewBox="0 0 58 20">
  <path fill="#3A7ECD" d="M11.602 8.434 9.422 17H7.354l-1.16-4.5a9.276 9.276 0 0 1-.094-.393 42.28 42.28 0 0 1-.24-1.166 8.134 8.134 0 0 1-.065-.445 5.87 5.87 0 0 1-.07.44 16.58 16.58 0 0 1-.112.585 21.534 21.534 0 0 1-.21.99L4.247 17H2.186L0 8.434h1.787l1.096 4.675c.031.141.066.309.105.504.043.196.084.4.123.616.043.21.08.416.112.615.035.195.06.365.076.51a38.697 38.697 0 0 1 .176-1.12c.039-.207.078-.398.117-.574.039-.176.074-.318.105-.428l1.248-4.798h1.717l1.248 4.798c.027.106.059.248.094.428a18.206 18.206 0 0 1 .223 1.184c.035.195.06.365.076.51a26.019 26.019 0 0 1 .422-2.245l1.09-4.675h1.787Zm6.89 5.279c0 .547-.074 1.031-.223 1.453-.144.422-.357.78-.638 1.072a2.686 2.686 0 0 1-1.008.657c-.39.148-.832.222-1.324.222a3.52 3.52 0 0 1-1.272-.223 2.826 2.826 0 0 1-1.002-.656 3.06 3.06 0 0 1-.656-1.072c-.152-.422-.228-.906-.228-1.453 0-.727.129-1.342.386-1.846a2.654 2.654 0 0 1 1.102-1.148c.476-.262 1.045-.393 1.705-.393.613 0 1.156.131 1.629.393.476.261.85.644 1.119 1.148.273.504.41 1.12.41 1.846Zm-4.53 0c0 .43.048.79.142 1.084.093.293.24.513.439.662.2.148.459.223.78.223.316 0 .572-.075.767-.223.2-.149.344-.37.433-.662.094-.293.141-.654.141-1.084 0-.434-.047-.793-.14-1.078-.09-.29-.235-.506-.434-.65-.2-.145-.46-.217-.78-.217-.472 0-.816.162-1.03.486-.212.324-.317.81-.317 1.459Zm9.663-3.387c.09 0 .193.006.31.018.122.008.22.02.294.035l-.135 1.676a1.084 1.084 0 0 0-.252-.041 2.592 2.592 0 0 0-.95.07 1.648 1.648 0 0 0-.58.287c-.171.129-.308.3-.41.516-.097.21-.146.47-.146.779V17h-1.787v-6.55h1.353l.264 1.1h.088c.129-.222.289-.425.48-.609.196-.187.416-.336.662-.445.25-.113.52-.17.809-.17Zm3.58-2.443v4.078c0 .246-.01.492-.03.738-.019.246-.04.492-.064.739h.024c.12-.172.244-.342.369-.51a6.93 6.93 0 0 1 .41-.487l1.834-1.992h2.016l-2.602 2.842L31.922 17h-2.063l-1.886-2.654-.768.615V17h-1.787V7.883h1.787Zm10.852 6.738c0 .508-.123.95-.37 1.324-.246.375-.605.664-1.078.867-.468.204-1.039.305-1.71.305a6.42 6.42 0 0 1-.874-.058 6.025 6.025 0 0 1-.814-.17 5.09 5.09 0 0 1-.738-.287v-1.688c.406.18.828.342 1.265.486a4.13 4.13 0 0 0 1.301.217c.297 0 .535-.039.715-.117a.817.817 0 0 0 .398-.322.892.892 0 0 0 .123-.469.772.772 0 0 0-.216-.55 2.265 2.265 0 0 0-.598-.429c-.25-.132-.533-.275-.85-.427a9.757 9.757 0 0 1-.65-.34 3.801 3.801 0 0 1-.668-.498 2.4 2.4 0 0 1-.521-.71c-.133-.28-.2-.616-.2-1.007 0-.512.117-.95.352-1.312a2.215 2.215 0 0 1 1.002-.832c.437-.196.953-.293 1.547-.293.445 0 .869.052 1.271.158.406.101.83.25 1.272.445l-.586 1.412a9.706 9.706 0 0 0-1.06-.369 3.44 3.44 0 0 0-.956-.135c-.227 0-.42.037-.58.112a.781.781 0 0 0-.486.756c0 .203.058.375.175.515.121.137.301.27.54.399.242.128.542.279.902.45.437.208.81.425 1.119.651.313.223.553.486.72.791.169.3.253.676.253 1.125Zm4.095-4.306c.88 0 1.553.19 2.022.574.469.383.703.965.703 1.746V17h-1.248l-.346-.89h-.047a3.318 3.318 0 0 1-.574.574 1.97 1.97 0 0 1-.674.328c-.254.07-.562.105-.925.105-.387 0-.735-.074-1.044-.223a1.656 1.656 0 0 1-.72-.68c-.176-.308-.264-.698-.264-1.171 0-.695.244-1.207.733-1.535.488-.332 1.22-.516 2.197-.551l1.137-.035v-.287c0-.344-.09-.596-.27-.756-.18-.16-.43-.24-.75-.24-.316 0-.627.045-.932.134a7.42 7.42 0 0 0-.914.34l-.591-1.207a5.084 5.084 0 0 1 1.165-.433 5.634 5.634 0 0 1 1.342-.159Zm.95 3.65-.692.023c-.578.016-.98.12-1.207.31a.948.948 0 0 0-.334.757c0 .273.08.468.24.586.16.113.37.17.627.17.383 0 .705-.114.967-.34.266-.227.399-.55.399-.967v-.54Zm7.242-2.174h-1.547V17H47.01v-5.209h-.985v-.861l.985-.48v-.481c0-.559.093-.992.281-1.301.191-.313.459-.531.803-.656.347-.13.758-.194 1.23-.194.348 0 .664.03.95.088.285.055.517.117.697.188l-.457 1.312a5.229 5.229 0 0 0-.446-.117 2.585 2.585 0 0 0-.55-.053c-.25 0-.434.076-.551.229-.114.148-.17.34-.17.574v.41h1.547v1.342Zm3.732-1.465c.606 0 1.127.117 1.565.352a2.4 2.4 0 0 1 1.013 1.007c.239.442.358.981.358 1.618v.867h-4.225c.02.504.17.9.451 1.19.285.285.68.427 1.184.427.418 0 .8-.043 1.148-.129a5.839 5.839 0 0 0 1.073-.386v1.382c-.325.16-.665.278-1.02.352a6.32 6.32 0 0 1-1.283.111c-.656 0-1.238-.12-1.746-.363a2.712 2.712 0 0 1-1.19-1.108c-.285-.496-.427-1.12-.427-1.875 0-.765.129-1.402.386-1.91.262-.511.625-.894 1.09-1.148.465-.258 1.006-.387 1.623-.387Zm.012 1.272c-.348 0-.637.111-.867.334-.227.222-.358.572-.393 1.048h2.508a1.766 1.766 0 0 0-.146-.709 1.101 1.101 0 0 0-.41-.492c-.18-.12-.41-.181-.692-.181Z"/>
  <g clip-path="url(#a)">
    <path fill="#EFE72C" d="M4.889.625a.618.618 0 0 0-.611.625v1.99c0 .11-.086.197-.193.197a.192.192 0 0 1-.168-.1L3 1.7A4.384 4.384 0 0 0 .611 5.625v1.25h9.778V5.578A4.384 4.384 0 0 0 7.999 1.7l-.916 1.639c-.034.062-.1.1-.168.1a.195.195 0 0 1-.193-.198V1.25a.618.618 0 0 0-.61-.625H4.888ZM.317 7.5A.32.32 0 0 0 0 7.824c0 .092.038.18.11.233.415.31 2.025 1.318 5.39 1.318 3.365 0 4.975-1.008 5.39-1.318a.286.286 0 0 0 .11-.233.32.32 0 0 0-.317-.324H.317Z"/>
  </g>
  <defs>
    <clipPath id="a">
      <path fill="#fff" d="M0 0h11v10H0z"/>
    </clipPath>
  </defs>
</svg>
